<?xml version="1.0" encoding="utf-8"?>
<!-- Generator: Adobe Illustrator 24.1.0, SVG Export Plug-In . SVG Version: 6.00 Build 0)  -->
<svg version="1.1" id="Шар_1" xmlns="http://www.w3.org/2000/svg" xmlns:xlink="http://www.w3.org/1999/xlink" x="0px" y="0px"
	 viewBox="0 0 82 82" style="enable-background:new 0 0 82 82;" xml:space="preserve">
<style type="text/css">
	.st0{fill:#FFFFFF;}
	.st1{fill-rule:evenodd;clip-rule:evenodd;fill:#FFFFFF;}
</style>
<g id="Layer_2">
	<g id="Icons">
		<path class="st0" d="M41,82C18.4,82,0,63.6,0,41S18.4,0,41,0s41,18.4,41,41S63.6,82,41,82z M41,2C19.5,2,2,19.5,2,41
			s17.5,39,39,39s39-17.5,39-39S62.5,2,41,2z"/>
	</g>
</g>
<path id="Cat" class="st1" d="M48.2,61h-5.3h-5.3c0,0,0-3.2,0-5.3c-7.3,1.6-9.3-4-9.3-4c-1.3-2.7-2.7-4-2.7-4c-2.7-1.6,0-1.3,0-1.3
	c2.7,0,4,2.7,4,2.7c2.3,4,6.5,3.3,8,2.7c0-1.3,0.6-3.3,1.3-4c-5.8-0.7-10.6-4-10.6-10.6s1.3-8,2.7-9.3c-0.3-0.7-1.4-3.1,0-6.7
	c0,0,2.6,0,5.3,4c1.3-1.3,5.3-1.3,6.7-1.3c1.3,0,5.3,0,6.7,1.3c2.7-4,5.3-4,5.3-4c1.4,3.6,0.3,6,0,6.7c1.3,1.3,2.7,2.7,2.7,9.3
	s-4.8,10-10.6,10.6c0.7,0.6,1.3,2.9,1.3,4V61z"/>
</svg>
